HIERARCHY
ROOT hip
{
  OFFSET -0.49633 94.41 0.949975
  CHANNELS 6 Xposition Yposition Zposition Zrotation Xrotation Yrotation
  JOINT abdomen
  {
    OFFSET -0.426062 7.22767 -5.91278e-05
    CHANNELS 6 Xposition Yposition Zposition Zrotation Xrotation Yrotation
    JOINT chest
    {
      OFFSET 0.000990867 16.5488 -0.000187874
      CHANNELS 6 Xposition Yposition Zposition Zrotation Xrotation Yrotation
      JOINT neck
      {
        OFFSET -3.24249e-05 34.2154 0.000263214
        CHANNELS 6 Xposition Yposition Zposition Zrotation Xrotation Yrotation
        JOINT head
        {
          OFFSET 0 6.29236 0
          CHANNELS 6 Xposition Yposition Zposition Zrotation Xrotation Yrotation
          End Site
          {
            OFFSET 0 0 0
          }
        }
      }
      JOINT lCollar
      {
        OFFSET 4.06393 26.6115 -1.12343
        CHANNELS 6 Xposition Yposition Zposition Zrotation Xrotation Yrotation
        JOINT lShldr
        {
          OFFSET 14.1772 0 0
          CHANNELS 6 Xposition Yposition Zposition Zrotation Xrotation Yrotation
          JOINT lForeArm
          {
            OFFSET 26.1234 0 0
            CHANNELS 6 Xposition Yposition Zposition Zrotation Xrotation Yrotation
            JOINT lHand
            {
              OFFSET 27.7188 0 1.14441e-05
              CHANNELS 6 Xposition Yposition Zposition Zrotation Xrotation Yrotation
              JOINT lThumb1
              {
                OFFSET 2.29793 -0.468452 1.83133
                CHANNELS 6 Xposition Yposition Zposition Zrotation Xrotation Yrotation
                JOINT lThumb2
                {
                  OFFSET 5.29527 0 0
                  CHANNELS 6 Xposition Yposition Zposition Zrotation Xrotation Yrotation
                  JOINT lThumb3
                  {
                    OFFSET 3.01811 0 0
                    CHANNELS 6 Xposition Yposition Zposition Zrotation Xrotation Yrotation
                    End Site
                    {
                      OFFSET 0 0 0
                    }
                  }
                }
              }
              JOINT lIndex1
              {
                OFFSET 9.37931 0.299057 2.59235
                CHANNELS 6 Xposition Yposition Zposition Zrotation Xrotation Yrotation
                JOINT lIndex2
                {
                  OFFSET 4.34608 0 0
                  CHANNELS 6 Xposition Yposition Zposition Zrotation Xrotation Yrotation
                  JOINT lIndex3
                  {
                    OFFSET 2.1666 0 0
                    CHANNELS 6 Xposition Yposition Zposition Zrotation Xrotation Yrotation
                    End Site
                    {
                      OFFSET 0 0 0
                    }
                  }
                }
              }
              JOINT lMid1
              {
                OFFSET 9.47693 0.837646 0.294672
                CHANNELS 6 Xposition Yposition Zposition Zrotation Xrotation Yrotation
                JOINT lMid2
                {
                  OFFSET 4.77205 0 0
                  CHANNELS 6 Xposition Yposition Zposition Zrotation Xrotation Yrotation
                  JOINT lMid3
                  {
                    OFFSET 2.87216 -1.52588e-05 0
                    CHANNELS 6 Xposition Yposition Zposition Zrotation Xrotation Yrotation
                    End Site
                    {
                      OFFSET 0 0 0
                    }
                  }
                }
              }
              JOINT lRing1
              {
                OFFSET 8.65863 1.01764 -1.70161
                CHANNELS 6 Xposition Yposition Zposition Zrotation Xrotation Yrotation
                JOINT lRing2
                {
                  OFFSET 4.54612 0 0
                  CHANNELS 6 Xposition Yposition Zposition Zrotation Xrotation Yrotation
                  JOINT lRing3
                  {
                    OFFSET 2.50603 0 0
                    CHANNELS 6 Xposition Yposition Zposition Zrotation Xrotation Yrotation
                    End Site
                    {
                      OFFSET 0 0 0
                    }
                  }
                }
              }
              JOINT lPinky1
              {
                OFFSET 7.69005 0.661804 -3.90961
                CHANNELS 6 Xposition Yposition Zposition Zrotation Xrotation Yrotation
                JOINT lPinky2
                {
                  OFFSET 3.21193 0 0
                  CHANNELS 6 Xposition Yposition Zposition Zrotation Xrotation Yrotation
                  JOINT lPinky3
                  {
                    OFFSET 1.92396 0 0
                    CHANNELS 6 Xposition Yposition Zposition Zrotation Xrotation Yrotation
                    End Site
                    {
                      OFFSET 0 0 0
                    }
                  }
                }
              }
            }
          }
        }
      }
      JOINT rCollar
      {
        OFFSET -4.06772 26.6109 -1.12341
        CHANNELS 6 Xposition Yposition Zposition Zrotation Xrotation Yrotation
        JOINT rShldr
        {
          OFFSET -14.1772 -1.52587e-05 0
          CHANNELS 6 Xposition Yposition Zposition Zrotation Xrotation Yrotation
          JOINT rForeArm
          {
            OFFSET -26.1234 0 0
            CHANNELS 6 Xposition Yposition Zposition Zrotation Xrotation Yrotation
            JOINT rHand
            {
              OFFSET -27.7188 0 0
              CHANNELS 6 Xposition Yposition Zposition Zrotation Xrotation Yrotation
              JOINT rThumb1
              {
                OFFSET -2.29793 -0.468457 1.83133
                CHANNELS 6 Xposition Yposition Zposition Zrotation Xrotation Yrotation
                JOINT rThumb2
                {
                  OFFSET -5.29527 0 0
                  CHANNELS 6 Xposition Yposition Zposition Zrotation Xrotation Yrotation
                  JOINT rThumb3
                  {
                    OFFSET -3.01811 0 0
                    CHANNELS 6 Xposition Yposition Zposition Zrotation Xrotation Yrotation
                    End Site
                    {
                      OFFSET 0 0 0
                    }
                  }
                }
              }
              JOINT rIndex1
              {
                OFFSET -9.3793 0.299057 2.59236
                CHANNELS 6 Xposition Yposition Zposition Zrotation Xrotation Yrotation
                JOINT rIndex2
                {
                  OFFSET -4.34608 0 0
                  CHANNELS 6 Xposition Yposition Zposition Zrotation Xrotation Yrotation
                  JOINT rIndex3
                  {
                    OFFSET -2.16661 0 0
                    CHANNELS 6 Xposition Yposition Zposition Zrotation Xrotation Yrotation
                    End Site
                    {
                      OFFSET 0 0 0
                    }
                  }
                }
              }
              JOINT rMid1
              {
                OFFSET -9.47693 0.83764 0.294668
                CHANNELS 6 Xposition Yposition Zposition Zrotation Xrotation Yrotation
                JOINT rMid2
                {
                  OFFSET -4.77205 0 0
                  CHANNELS 6 Xposition Yposition Zposition Zrotation Xrotation Yrotation
                  JOINT rMid3
                  {
                    OFFSET -2.87218 0 0
                    CHANNELS 6 Xposition Yposition Zposition Zrotation Xrotation Yrotation
                    End Site
                    {
                      OFFSET 0 0 0
                    }
                  }
                }
              }
              JOINT rRing1
              {
                OFFSET -8.65863 1.01763 -1.70161
                CHANNELS 6 Xposition Yposition Zposition Zrotation Xrotation Yrotation
                JOINT rRing2
                {
                  OFFSET -4.5461 0 0
                  CHANNELS 6 Xposition Yposition Zposition Zrotation Xrotation Yrotation
                  JOINT rRing3
                  {
                    OFFSET -2.50604 0 0
                    CHANNELS 6 Xposition Yposition Zposition Zrotation Xrotation Yrotation
                    End Site
                    {
                      OFFSET 0 0 0
                    }
                  }
                }
              }
              JOINT rPinky1
              {
                OFFSET -7.69004 0.661797 -3.90961
                CHANNELS 6 Xposition Yposition Zposition Zrotation Xrotation Yrotation
                JOINT rPinky2
                {
                  OFFSET -3.21194 0 0
                  CHANNELS 6 Xposition Yposition Zposition Zrotation Xrotation Yrotation
                  JOINT rPinky3
                  {
                    OFFSET -1.92396 0 0
                    CHANNELS 6 Xposition Yposition Zposition Zrotation Xrotation Yrotation
                    End Site
                    {
                      OFFSET 0 0 0
                    }
                  }
                }
              }
            }
          }
        }
      }
    }
  }
  JOINT lThigh
  {
    OFFSET 8.73786 -0.00289154 0.000544548
    CHANNELS 6 Xposition Yposition Zposition Zrotation Xrotation Yrotation
    JOINT lShin
    {
      OFFSET 0 -46.6676 0
      CHANNELS 6 Xposition Yposition Zposition Zrotation Xrotation Yrotation
      JOINT lFoot
      {
        OFFSET 0 -40.1476 0
        CHANNELS 6 Xposition Yposition Zposition Zrotation Xrotation Yrotation
        JOINT lToes
        {
          OFFSET 0 -8.8846 14.2294
          CHANNELS 6 Xposition Yposition Zposition Zrotation Xrotation Yrotation
          End Site
          {
            OFFSET 0 0 0
          }
        }
      }
    }
  }
  JOINT rThigh
  {
    OFFSET -8.73786 0.00292206 -0.000535965
    CHANNELS 6 Xposition Yposition Zposition Zrotation Xrotation Yrotation
    JOINT rShin
    {
      OFFSET 0 -46.6676 1.04904e-05
      CHANNELS 6 Xposition Yposition Zposition Zrotation Xrotation Yrotation
      JOINT rFoot
      {
        OFFSET -1.14441e-05 -40.1476 0
        CHANNELS 6 Xposition Yposition Zposition Zrotation Xrotation Yrotation
        JOINT rToes
        {
          OFFSET 0 -8.8846 14.2294
          CHANNELS 6 Xposition Yposition Zposition Zrotation Xrotation Yrotation
          End Site
          {
            OFFSET 0 0 0
          }
        }
      }
    }
  }
}
MOTION
Frames:	4
Frame Time:	0.0333333
0.469307 94.8824 -1.08307 -2.52008 -5.03555 9.87068 -0.426087 7.22768 -5.91278e-05 -0.890038 -0.0839392 -0.499961 0.00207424 16.5492 -0.000116348 3.27092 4.37964 -5.10777 -7.58171e-05 34.2153 0.000242472 -1.686 36.9264 1.72011 2.38418e-07 6.29236 1.42109e-14 1.36726 -32.1114 11.9994 4.06394 26.6115 -1.12343 -1.13167 -4.62849 3.25075 14.1772 -2.84217e-14 9.53676e-07 -49.5863 -22.3172 -57.1319 26.1234 1.52588e-05 7.6294e-06 -9.46209e-06 2.22958e-05 -119.147 27.7188 7.62941e-06 1.90735e-05 12.161 25.5013 -7.26921 2.29794 -0.468453 1.83133 69.0164 58.4161 -104.066 5.29526 9.57812e-12 7.62941e-06 -31.1802 -2.99487 2.27274 3.01812 -4.80327e-12 -1.52588e-05 -6.4292 3.69818 10.2611 9.3793 0.299057 2.59236 -2.19156 1.267 -3.00509 4.34611 3.8147e-06 -1.52588e-05 -57.5672 -4.52763 4.38723 2.1666 9.60655e-12 7.6294e-06 -11.4305 -0.165796 2.04645 9.47691 0.837635 0.294686 -22.6432 4.13636 2.02514 4.77207 2.28882e-05 -2.28882e-05 -69.97 -10.688 15.1011 2.87217 -4.57764e-05 7.6294e-06 -36.3605 -4.09925 10.6156 8.65866 1.01764 -1.70162 -33.942 4.18394 -0.797888 4.5461 -1.52588e-05 -4.78906e-12 -70.6991 -6.01886 8.47757 2.50603 1.52588e-05 -7.6294e-06 -43.1512 -3.19698 6.86332 7.69005 0.661797 -3.9096 -47.3972 -19.9237 -6.54457 3.21192 -1.52588e-05 7.6294e-06 -66.7804 -13.0433 15.4047 1.92396 1.52588e-05 2.38743e-12 -15.9842 -1.32736 7.36826 -4.06771 26.6109 -1.12341 4.30271 -4.3304 3.2766 -14.1772 1.52588e-05 1.43051e-06 88.2396 37.2756 -20.0015 -26.1234 -3.8147e-06 -3.8147e-06 1.5947e-05 -1.13125e-05 7.64333 -27.7188 1.90734e-06 -3.81469e-06 -4.70659 -12.6178 -1.27257 -2.29793 -0.468454 1.83133 -57.091 56.86 81.4675 -5.29526 -3.81469e-06 3.8147e-06 43.5277 1.20289 -3.69119 -3.0181 -3.81469e-06 -9.53676e-07 -15.8099 0.0021724 0.00024332 -9.37931 0.299059 2.59235 16.602 -2.59282 -5.95467 -4.34607 -8.58306e-06 -3.8147e-06 8.70177 0.0479624 -1.56317 -2.16661 7.62939e-06 -7.6294e-06 10.2429 6.57406e-05 -1.45142e-05 -9.47694 0.837637 0.294666 19.0415 -6.1866 -5.19863 -4.77205 -1.90735e-06 0 14.6444 -0.203265 -1.29549 -2.87216 -5.72205e-06 -7.6294e-06 7.12034 -0.00674737 -0.402187 -8.65865 1.01763 -1.70161 19.8832 -0.608724 -5.33946 -4.5461 -9.53676e-07 -3.8147e-06 12.9788 -0.00232483 -0.00982952 -2.50603 3.8147e-06 3.8147e-06 3.24198 2.98821e-06 3.92736e-05 -7.69006 0.661795 -3.90961 15.9699 -10.3958 -3.04972 -3.21194 2.86102e-06 -3.8147e-06 11.6061 0.00258992 0.0127246 -1.92397 -5.72204e-06 -7.10543e-15 6.44315 -1.62217e-05 -1.8783e-05 8.73786 -0.00292206 0.000544071 16.1283 -7.59224 32.1272 -5.72204e-06 -46.6676 -1.90736e-06 -1.15288e-05 20.2484 3.20779e-05 5.72204e-06 -40.1476 -9.53674e-06 -4.27291 -2.95393 1.51789 -9.53672e-07 -8.8846 14.2294 0.000153306 2.78544e-05 -2.62705e-05 -8.73786 0.0029068 -0.000536442 0.817602 1.88783 -38.7507 4.76837e-06 -46.6676 9.53675e-06 1.8809e-05 12.959 -1.8557e-05 -5.72205e-06 -40.1476 -9.53676e-07 0.229188 -9.37944 -0.395571 4.29153e-06 -8.88459 14.2294 -2.95152e-05 -1.93433e-06 5.86293e-05 
0.365971 94.8223 -1.06028 -2.47887 -5.10838 10.2117 -0.426083 7.22768 -5.96047e-05 -0.618262 -0.0819077 -0.516779 0.00212717 16.5492 -0.000116348 3.55829 4.44115 -5.23882 -7.71284e-05 34.2153 0.000234604 -1.67371 36.929 1.7098 1.19209e-07 6.29236 -7.62939e-06 0.687 -32.0858 11.6896 4.06394 26.6115 -1.12344 -0.981146 -4.6217 3.36352 14.1772 2.84217e-14 1.90735e-06 -50.1038 -22.6747 -51.6971 26.1234 -3.33955e-12 -1.69109e-12 -1.07341e-05 1.59903e-05 -121.599 27.7188 1.42109e-14 -3.8147e-06 12.0427 23.8397 -7.21391 2.29793 -0.468452 1.83131 69.0753 58.3372 -104.133 5.29527 2.84217e-14 -1.42109e-14 -30.9415 -2.97647 2.30767 3.01811 0 7.6294e-06 -6.39991 3.6955 10.2507 9.37932 0.299061 2.59235 -1.87601 1.21614 -2.68479 4.3461 3.81469e-06 6.69331e-12 -57.1392 -4.49552 4.42251 2.1666 1.52588e-05 7.62939e-06 -11.4929 -0.168025 2.06011 9.47694 0.837639 0.29467 -23.1085 3.45296 2.6247 4.77205 -4.81748e-12 4.80327e-12 -69.9932 -10.6942 15.1034 2.87216 9.60654e-12 -1.67688e-12 -36.3575 -4.09872 10.615 8.65866 1.01764 -1.70161 -34.8305 3.33347 -0.915284 4.5461 7.62939e-06 -1.42109e-14 -70.7127 -6.02088 8.47829 2.50602 3.05176e-05 -1.52588e-05 -43.1512 -3.19697 6.86331 7.69006 0.661796 -3.90961 -47.4299 -19.9579 -6.54467 3.21193 1.52588e-05 -1.67688e-12 -66.756 -13.0348 15.4009 1.92398 -7.6294e-06 3.8147e-06 -15.9555 -1.32366 7.35827 -4.06771 26.6109 -1.12342 4.4615 -4.32268 3.27112 -14.1772 -3.35376e-12 9.53674e-07 86.8896 37.2227 -19.8822 -26.1234 -7.62939e-06 -3.8147e-06 1.80363e-05 -4.2155e-06 7.87276 -27.7188 -4.22773e-13 3.8147e-06 -4.83048 -13.1981 -1.30842 -2.29792 -0.468452 1.83133 -57.2062 56.6912 81.475 -5.29527 5.72204e-06 -4.18332e-13 43.4615 1.23212 -3.69425 -3.01811 -3.8147e-06 2.12719e-13 -15.6409 -0.053918 -0.00358073 -9.37931 0.299057 2.59235 16.6961 -2.59642 -5.96593 -4.34608 -3.81469e-06 8.31335e-13 8.65448 0.0495983 -1.55249 -2.1666 7.62939e-06 1.67688e-12 10.2429 5.76297e-05 -4.26887e-06 -9.47693 0.837639 0.294666 19.2127 -6.23122 -5.22057 -4.77205 1.77636e-15 7.10543e-15 14.7596 -0.211463 -1.32673 -2.87217 -9.53674e-06 1.67688e-12 7.12044 -0.00674567 -0.40222 -8.65864 1.01763 -1.70161 20.0549 -0.640482 -5.29246 -4.54612 -2.86102e-06 8.38441e-13 13.0892 -0.00624408 -0.0267308 -2.50603 7.62939e-06 -3.8147e-06 3.24198 1.28066e-05 2.81745e-05 -7.69004 0.661793 -3.90961 16.114 -10.4359 -3.0408 -3.21192 5.72204e-06 -8.45546e-13 11.6616 -0.00154704 -0.00735014 -1.92397 -1.90735e-06 -3.8147e-06 6.44315 -1.83561e-05 -2.13443e-05 8.73786 -0.00291443 0.000544548 16.2608 -7.75479 31.9042 -9.53674e-07 -46.6676 -7.62939e-06 1.02772e-05 20.6163 7.1835e-06 9.53674e-07 -40.1476 -5.72204e-06 -4.30729 -3.0469 1.64021 2.86102e-06 -8.8846 14.2294 0.00014781 8.40433e-06 -1.89383e-05 -8.73787 0.00289917 -0.000535965 0.720212 1.83781 -39.0375 2.86102e-06 -46.6676 1.90735e-06 1.68746e-05 13.7074 1.07276e-06 -9.53674e-06 -40.1476 -9.53673e-07 0.172072 -9.9392 -0.417236 3.33786e-06 -8.88459 14.2294 -2.08908e-05 -1.96101e-06 4.39497e-05 
0.248248 94.759 -1.03488 -2.4341 -5.17915 10.5939 -0.42608 7.22768 -6.05583e-05 -0.375567 -0.0719923 -0.525726 0.00212145 16.5493 -0.000116348 3.82185 4.53373 -5.23699 -7.9751e-05 34.2153 0.000239372 -1.64584 36.935 1.68641 2.38418e-07 6.29234 7.62939e-06 0.0942672 -32.0783 11.2811 4.06394 26.6115 -1.12344 -0.791372 -4.61221 3.4978 14.1772 -2.84217e-14 -2.13163e-12 -51.3109 -23.3505 -45.908 26.1234 -1.12976e-11 0 -9.93072e-06 1.72282e-05 -124.37 27.7188 7.62941e-06 1.52588e-05 12.0825 22.1388 -7.21714 2.29791 -0.468452 1.83132 69.2175 58.1455 -104.294 5.29526 0 7.62938e-06 -30.7805 -2.94826 2.37055 3.01813 2.25668e-11 -7.62937e-06 -6.32876 3.68898 10.2254 9.3793 0.299061 2.59236 -1.52279 1.16271 -2.3665 4.34605 -7.62939e-06 1.52588e-05 -56.7271 -4.46558 4.45858 2.16661 1.52588e-05 -7.62941e-06 -11.6443 -0.173531 2.09329 9.47693 0.837643 0.29467 -23.5665 2.75541 3.22752 4.77204 0 0 -70.0496 -10.7091 15.109 2.87217 -2.25668e-11 1.42109e-14 -36.3504 -4.09736 10.6135 8.65864 1.01763 -1.70161 -35.8117 2.41026 -1.03593 4.5461 -7.62942e-06 0 -70.7457 -6.02578 8.48 2.50604 0 1.42109e-14 -43.1512 -3.19699 6.86332 7.69005 0.661796 -3.9096 -47.5092 -20.0411 -6.54499 3.21192 -2.25953e-11 0 -66.6967 -13.0141 15.3917 1.92397 2.2581e-11 -5.6346e-12 -15.8857 -1.31464 7.33403 -4.06771 26.6109 -1.12341 4.56931 -4.31654 3.2791 -14.1772 2.84217e-14 9.53676e-07 85.9564 37.2628 -19.8616 -26.1234 -1.90734e-06 -3.81469e-06 -1.26718e-06 2.88151e-06 8.00109 -27.7188 8.51941e-12 -1.12905e-11 -4.8855 -13.4862 -1.3189 -2.29792 -0.468453 1.83133 -57.2881 56.5769 81.4744 -5.29528 -1.42819e-11 1.90735e-06 43.4244 1.24855 -3.69596 -3.0181 -3.8147e-06 1.77636e-15 -15.5229 -0.0931131 -0.00614889 -9.3793 0.299061 2.59235 16.7666 -2.60015 -5.97707 -4.34608 -3.8147e-06 0 8.61745 0.0508478 -1.54413 -2.16661 5.72205e-06 5.64171e-12 10.2429 6.36061e-05 -2.56132e-05 -9.47692 0.837639 0.294666 19.3385 -6.26668 -5.24063 -4.77206 -1.90735e-06 0 14.8212 -0.215901 -1.34343 -2.87217 -3.81469e-06 -5.64171e-12 7.12055 -0.00673371 -0.402252 -8.65863 1.01763 -1.70161 20.1784 -0.663022 -5.25829 -4.54611 9.53676e-07 7.10543e-15 13.1622 -0.00884724 -0.037934 -2.50603 3.81469e-06 -3.8147e-06 3.242 -1.70757e-06 4.26887e-05 -7.69005 0.661797 -3.90961 16.2142 -10.4643 -3.03623 -3.21191 3.81469e-06 -7.6294e-06 11.7014 -0.00451348 -0.0217499 -1.92397 -3.8147e-06 -5.6346e-12 6.44317 -3.41511e-06 -1.36604e-05 8.73786 -0.00291443 0.000544071 16.4083 -7.81941 31.8104 -5.72204e-06 -46.6676 5.64171e-12 -1.29913e-05 20.9608 3.15425e-05 6.67572e-06 -40.1476 -3.81471e-06 -4.3576 -3.1624 1.72123 4.76837e-06 -8.8846 14.2294 0.000147689 2.90016e-05 -1.79262e-05 -8.73786 0.00289154 -0.000537396 0.641678 1.78787 -39.3449 -9.5368e-07 -46.6676 5.72205e-06 2.00039e-05 14.447 -8.95772e-06 -1.43051e-05 -40.1476 3.33787e-06 0.103283 -10.5105 -0.442187 8.10624e-06 -8.88459 14.2294 -2.29719e-05 -1.28735e-06 4.76523e-05 
0.126235 94.6931 -1.01155 -2.38813 -5.25664 10.9679 -0.426087 7.22769 -6.05583e-05 -0.157657 -0.0575149 -0.496543 0.00196171 16.5493 -0.000128746 4.10108 4.66175 -4.84964 -8.17776e-05 34.2153 0.000239134 -1.60147 36.9444 1.64916 1.11022e-16 6.29237 -7.6294e-06 -0.429846 -32.0872 10.4737 4.06393 26.6115 -1.12344 -0.585968 -4.60096 3.64039 14.1772 -1.44098e-11 4.76837e-07 -52.8505 -23.9204 -40.1354 26.1234 -7.62939e-06 7.2049e-12 -2.42792e-05 1.84891e-05 -127.29 27.7188 7.62939e-06 1.14441e-05 12.1821 20.4171 -7.23928 2.29794 -0.468452 1.83133 69.3906 57.9085 -104.49 5.29527 0 -7.6294e-06 -30.6502 -2.91604 2.44457 3.01809 1.52588e-05 2.28882e-05 -6.24085 3.68087 10.1943 9.37932 0.299061 2.59236 -1.15406 1.10939 -2.04776 4.3461 3.8147e-06 7.62937e-06 -56.3209 -4.43625 4.49493 2.1666 -2.84217e-14 7.20491e-12 -11.8314 -0.180428 2.13425 9.47696 0.837639 0.29467 -24.0185 2.04715 3.82991 4.77204 -7.2049e-12 0 -70.1192 -10.7276 15.1158 2.87217 -1.52588e-05 3.60956e-12 -36.3416 -4.09572 10.6116 8.65866 1.01764 -1.70161 -36.8335 1.45686 -1.16946 4.5461 -7.62941e-06 -2.84217e-14 -70.7864 -6.03181 8.48212 2.50604 0 0 -43.1512 -3.19699 6.86332 7.69006 0.661793 -3.9096 -47.6073 -20.1439 -6.54558 3.21193 2.88196e-11 3.60245e-12 -66.6234 -12.9884 15.3804 1.92397 7.62938e-06 -7.20491e-12 -15.7996 -1.3036 7.30403 -4.06772 26.6109 -1.12341 4.39068 -4.33396 3.17124 -14.1772 1.44098e-11 2.38419e-06 85.9699 37.6394 -20.1646 -26.1234 -3.8147e-06 7.10543e-15 2.73001e-05 9.76503e-06 7.94636 -27.7188 5.72205e-06 -3.8147e-06 -4.7114 -12.9437 -1.20478 -2.29792 -0.468453 1.83133 -57.2983 56.5914 81.4471 -5.29528 -3.8147e-06 -1.79945e-12 43.4577 1.23379 -3.69443 -3.0181 -3.8147e-06 -3.60467e-12 -15.5221 -0.0934314 -0.00617621 -9.37931 0.299057 2.59235 16.7948 -2.60595 -5.99297 -4.34609 -3.8147e-06 -7.10543e-15 8.6033 0.0513417 -1.54094 -2.16661 9.53675e-06 3.8147e-06 10.2429 3.79929e-05 -1.19528e-05 -9.47693 0.837639 0.294662 19.3745 -6.28656 -5.26127 -4.77204 -3.8147e-06 -7.2049e-12 14.7475 -0.210623 -1.32346 -2.87217 -3.8147e-06 -3.8147e-06 7.11869 -0.00667736 -0.401741 -8.65864 1.01763 -1.70161 20.2019 -0.665593 -5.24918 -4.54612 -1.90735e-06 0 13.1604 -0.00878021 -0.0376642 -2.50603 -5.4623e-12 -7.62939e-06 3.242 -3.4151e-06 3.92736e-05 -7.69005 0.661797 -3.90961 16.2175 -10.4673 -3.04164 -3.21192 1.80478e-12 -3.81469e-06 11.7128 -0.00538688 -0.0258634 -1.92396 -3.8147e-06 -7.62939e-06 6.44316 -3.11628e-05 -1.79293e-05 8.73786 -0.00289917 0.000544548 16.535 -7.72102 31.9096 1.90735e-06 -46.6676 -3.81469e-06 -2.64239e-06 21.1584 2.86091e-05 4.76836e-06 -40.1476 -1.33514e-05 -4.41063 -3.25989 1.70595 2.86102e-06 -8.8846 14.2294 0.000151865 2.73474e-05 -2.30967e-05 -8.73786 0.00292206 -0.000535488 0.548899 1.72529 -39.5783 -9.53682e-07 -46.6676 4.76837e-06 2.0602e-06 15.1979 3.13281e-06 -4.29153e-06 -40.1476 3.81469e-06 0.0319832 -11.0635 -0.471589 5.24521e-06 -8.8846 14.2294 -3.18297e-05 -1.29733e-05 4.20221e-05 
